<?xml version="1.0" encoding="UTF-8"?>
<svg id="Layer_1" data-name="Layer 1" xmlns="http://www.w3.org/2000/svg" viewBox="0 0 659.93 155.7">
  <defs>
    <style>
      .cls-1 {
        fill: #e82a57;
        stroke-width: 0px;
      }
    </style>
  </defs>
  <path class="cls-1" d="M459.3,114.36c-.06.1-.28.3-.3.52q-.7,8.97-9.91,9.08-9.41.11-9.41-9.32c.02-35.72.03-71.44.05-107.17,0-5.76.35-6.1,5.99-6.18,2.87-.04,5.75.06,8.62-.06,3.73-.16,5.12,1.65,5.11,5.23-.05,12.32.01,24.64.05,36.95,0,1.44.15,2.89.25,4.78.85-.59,1.32-.81,1.66-1.16,16.75-17.54,50.74-13.21,62,14.32,6.12,14.96,5.4,30.04-2.31,44.4-9.63,17.94-32.77,25.49-50.6,16.48-4.03-2.04-7.49-5.22-11.22-7.88ZM507.53,80.39c-.35-9.46-3.9-18.63-14.33-23.45-15.97-7.39-33.39,4.39-34.25,22.91-.54,11.7,6.13,22.73,15.68,25.94,17.5,5.87,32.76-5.27,32.9-25.4Z"/>
  <path class="cls-1" d="M266.93,48.57c7.51-7.32,15.68-11.43,25.4-11.8,22.14-.85,39.75,14.51,42.49,36.71,1.66,13.45-.64,25.89-8.77,36.95-13.19,17.93-40.89,21.19-56.78,5.22-.45-.45-.96-.85-2.05-1.79,0,5.53.01,10.39,0,15.25-.02,6.98,0,13.96-.11,20.94-.07,4.71-.94,5.53-5.54,5.6-2.87.04-5.75.04-8.62-.01-4.71-.08-5.43-.76-5.44-5.58-.06-25.32-.08-50.65-.1-75.97,0-9.99.11-19.99-.01-29.98-.04-3.66,1.32-5.35,5.05-5.17,2.73.14,5.47.03,8.21.05,5.28.03,5.82.55,6.05,5.85.04.93.11,1.86.22,3.73ZM291.41,107.41c14.14-.09,24.12-10.86,24.11-26.03-.01-15.47-10.1-26.51-24.19-26.49-13.86.03-24.24,11.44-24.19,26.6.05,15.11,10.25,26.01,24.27,25.92Z"/>
  <path class="cls-1" d="M166.84,48.79c5.91-5.79,11.86-9.78,19.21-11.23,21.47-4.23,41.36,8.06,46.82,29.26,4.39,17.03,2.15,33-9.73,46.57-13.77,15.72-37.84,16.79-53.32,2.79-.6-.55-1.22-1.07-2.31-2.02-.14,1.58-.32,2.7-.32,3.83-.04,10.54-.02,21.07-.09,31.61-.03,5.09-.96,5.98-5.99,6.05-2.87.04-5.75-.05-8.62.04-3.62.11-5.15-1.46-5.12-5.17.11-14.64.05-29.28.05-43.93,0-20.53,0-41.05,0-61.58,0-5.35.54-5.91,5.82-6,2.6-.04,5.21.13,7.8-.05,4.03-.28,5.93,1.33,5.52,5.47-.1,1.05.11,2.13.26,4.35ZM191.35,107.38c13.59.04,24-11.1,24.03-25.72.03-15.68-10.03-26.73-24.34-26.74-13.83,0-24.38,11.35-24.5,26.37-.12,14.44,10.92,26.04,24.82,26.08Z"/>
  <path class="cls-1" d="M596.2,86.76c.12,10.84,8.03,19.75,18.75,21.29,9.56,1.38,18.34-.32,24.89-8.2,2.03-2.45,4.01-2.44,6.35-.77,2.45,1.75,4.84,3.57,7.32,5.27,3.02,2.07,2.74,4.18.55,6.78-6.44,7.64-14.51,12.36-24.38,13.91-12.23,1.92-24.16,1.06-34.8-5.8-14.23-9.16-19.44-23.2-19.34-39.4.12-20.2,12.77-36.82,32.01-41.68,26.26-6.63,53.44,9.27,52.34,43.79-.12,3.76-2.17,4.79-5.61,4.78-17.65-.07-35.29,0-52.94.01-1.62,0-3.24,0-5.15,0ZM639.38,72.24c-.31-10.55-8.58-18.04-19.94-18.39-12.01-.37-21.78,7.42-22.81,18.39h42.75Z"/>
  <path class="cls-1" d="M405.84,73.5c-.36-7.69-2.92-13.61-9.8-17.03-9.94-4.94-22.14-2.98-29.85,5-2,2.07-3.67,2.41-6.01.83-2.49-1.68-5.14-3.13-7.66-4.78-3.79-2.48-3.95-3.49-.95-7.09,5.88-7.05,13.77-10.71,22.49-12.59,9.55-2.06,19.05-1.43,28.32,1.77,11.21,3.87,18.28,11.57,21.32,23.03,2.78,10.49,3.19,21.12,1.27,31.74-3.27,18.09-15.18,28.93-33.76,31.14-9.35,1.11-18.58.63-27.56-2.45-11.35-3.88-18.02-12.54-18.29-23.66-.29-11.62,5.31-19.83,16.98-24.42,11.56-4.55,23.52-4.48,35.58-2.63,2.52.39,5.05.73,7.92,1.14ZM391.79,85.87c-3.93-.73-7.96-.68-11.87.14-2.4.5-4.99,1.11-6.77,1.69-4.73,1.56-7.84,4.9-7.87,10.29-.03,4.54,2.71,8.05,8.17,10.1,6.49,2.43,13.05,2.47,19.61.12,7.64-2.74,11.37-8.39,12.51-16.2.36-2.47-.5-3.64-2.71-4.06-2.9-.56-7.45-1.41-11.07-2.08Z"/>
  <path class="cls-1" d="M15.12,55.8c-4.18,0-7.72-.04-11.26.01-2.58.04-3.79-1.2-3.79-3.72,0-.14-.01-.27-.01-.41-.04-15.39-1.41-12.41,11.67-12.7.93-.02,1.86-.16,3.01-.26.34-4.74.34-9.38,1.04-13.9C18.31,8.48,30.12-.88,46.65.07c.55.03,1.09.08,1.64.15,15.54,1.83,12.69,2.61,11.31,15.59-.28,2.66-1.91,3.47-4.36,2.83-12.64-3.32-21.27.8-20.42,17.66.03.67.14,1.35.27,2.65,5.42,0,10.82,0,16.23,0,5.46,0,5.93.42,5.92,5.8-.03,12.61,1.04,11.04-10.86,11.1-3.66.02-7.33,0-11.55,0,0,2,0,3.59,0,5.18,0,18.75-.02,37.5-.03,56.25,0,5.97-.65,6.62-6.55,6.66-2.33.02-4.65.02-6.98,0-5.83-.03-6.21-.4-6.2-6.42,0-18.89.03-37.77.05-56.66,0-1.48,0-2.96,0-5.05Z"/>
  <path class="cls-1" d="M559.01,53.31c0,15.06-.04,30.11,0,45.17.02,7.47,1.89,9.42,9.43,9.53,2.55.04,3.45,1.19,3.6,3.39.21,3,.35,6.01.51,9.02.15,2.71-1.28,4.14-3.84,4.35-3.4.28-6.85.71-10.23.45-10.81-.84-16.67-6.24-18.44-16.96-.6-3.62-.73-7.35-.74-11.03-.05-30.11-.03-60.23-.02-90.34,0-5,.66-5.64,5.73-5.65,2.6,0,5.2.01,7.8.03,5.66.04,6.18.52,6.18,6.06.02,15.33,0,30.66,0,45.99Z"/>
  <path class="cls-1" d="M71.66,62.7c0-18.59-.02-37.19.01-55.78,0-4.94.55-5.46,5.36-5.57,2.6-.06,5.19-.06,7.79-.05,6.02.03,6.65.64,6.65,6.52.01,22.01.02,44.02.03,66.03,0,14.77,0,29.53-.03,44.3-.01,4.99-.82,5.77-5.66,5.82-2.73.03-5.47.01-8.2,0-5.28-.04-5.97-.66-5.98-5.89-.03-18.46-.01-36.91-.01-55.37.02,0,.03,0,.05,0Z"/>
  <path class="cls-1" d="M129.9,81.14c0,11.77.03,23.54-.01,35.31-.02,7.22-.32,7.47-7.34,7.5-2.46,0-4.93-.08-7.39.03-3.46.15-5.04-1.41-5.01-4.87.05-5.75-.03-11.5-.02-17.24.01-18.89.02-37.77.06-56.66.01-5.59.59-6.14,6.09-6.21,2.87-.03,5.75.09,8.62-.01,3.7-.14,5.1,1.56,5.07,5.21-.11,12.32-.04,24.63-.04,36.95,0,0-.01,0-.02,0Z"/>
  <path class="cls-1" d="M120.1,26.51c-7.62-.06-13.14-5.59-13.16-13.18-.02-7.5,5.69-12.95,13.43-12.83,7.26.12,12.93,5.87,12.89,13.1-.03,7.03-6.08,12.96-13.16,12.9Z"/>
</svg>